<svg width="155" height="26" viewBox="0 0 155 26" fill="none" xmlns="http://www.w3.org/2000/svg">
<g clip-path="url(#clip0_121_22)">
<path d="M8.24604 8.60137C5.81571 8.60137 3.84557 10.5705 3.84557 12.9996C3.84557 15.4286 5.81571 17.3977 8.24604 17.3977V21.2413C3.69188 21.2413 0 17.5514 0 12.9996C0 8.44778 3.69188 4.75781 8.24604 4.75781V8.60137ZM16.4792 4.75781C21.0334 4.75781 24.7253 8.44778 24.7253 12.9996C24.7253 17.5514 21.0334 21.2413 16.4792 21.2413C11.925 21.2413 8.23315 17.5514 8.23315 12.9996C8.23315 8.44778 11.925 4.75781 16.4792 4.75781ZM16.4792 8.60137C14.0489 8.60137 12.0788 10.5705 12.0788 12.9996C12.0788 15.4286 14.0489 17.3977 16.4792 17.3977C18.9095 17.3977 20.8797 15.4286 20.8797 12.9996C20.8797 10.5705 18.9095 8.60137 16.4792 8.60137Z" fill="#1E6DF6"/>
<path d="M51.8631 14.9799C51.7311 16.1239 51.3278 17.0993 50.6531 17.9059C49.9784 18.7126 49.0618 19.3286 47.9031 19.7539C46.7444 20.1793 45.3658 20.3919 43.7671 20.3919C42.4324 20.3919 41.2078 20.2379 40.0931 19.9299C38.9931 19.6219 38.0398 19.1599 37.2331 18.5439C36.4411 17.9279 35.8251 17.1653 35.3851 16.2559C34.9451 15.3319 34.7251 14.2539 34.7251 13.0219C34.7251 11.7899 34.9451 10.7119 35.3851 9.78794C35.8251 8.86394 36.4411 8.09394 37.2331 7.47794C38.0398 6.84727 38.9931 6.37794 40.0931 6.06994C41.2078 5.74727 42.4324 5.58594 43.7671 5.58594C45.3658 5.58594 46.7444 5.80594 47.9031 6.24594C49.0764 6.68594 50.0004 7.3166 50.6751 8.13794C51.3498 8.9446 51.7458 9.92727 51.8631 11.0859H48.9591C48.7684 10.4699 48.4458 9.94194 47.9911 9.50194C47.5511 9.04727 46.9791 8.7026 46.2751 8.46794C45.5711 8.23327 44.7351 8.11594 43.7671 8.11594C42.5644 8.11594 41.5084 8.3066 40.5991 8.68794C39.6898 9.0546 38.9858 9.6046 38.4871 10.3379C37.9884 11.0566 37.7391 11.9513 37.7391 13.0219C37.7391 14.0779 37.9884 14.9653 38.4871 15.6839C38.9858 16.4026 39.6898 16.9526 40.5991 17.3339C41.5084 17.7006 42.5644 17.8839 43.7671 17.8839C44.7351 17.8839 45.5638 17.7666 46.2531 17.5319C46.9571 17.2973 47.5291 16.9599 47.9691 16.5199C48.4238 16.0799 48.7538 15.5666 48.9591 14.9799H51.8631Z" fill="white"/>
<path d="M63.1879 20.3919C61.2959 20.3919 59.6753 20.0986 58.3259 19.5119C56.9913 18.9106 55.9646 18.0599 55.2459 16.9599C54.5419 15.8599 54.1899 14.5399 54.1899 12.9999C54.1899 11.4453 54.5419 10.1179 55.2459 9.01794C55.9646 7.91794 56.9913 7.0746 58.3259 6.48794C59.6753 5.8866 61.2959 5.58594 63.1879 5.58594C65.0946 5.58594 66.7153 5.8866 68.0499 6.48794C69.3846 7.0746 70.4039 7.91794 71.1079 9.01794C71.8266 10.1179 72.1859 11.4453 72.1859 12.9999C72.1859 14.5399 71.8266 15.8599 71.1079 16.9599C70.4039 18.0599 69.3846 18.9106 68.0499 19.5119C66.7153 20.0986 65.0946 20.3919 63.1879 20.3919ZM63.1879 17.8619C64.3613 17.8619 65.3879 17.6859 66.2679 17.3339C67.1626 16.9819 67.8593 16.4466 68.3579 15.7279C68.8713 15.0093 69.1279 14.0999 69.1279 12.9999C69.1279 11.8999 68.8713 10.9906 68.3579 10.2719C67.8593 9.55327 67.1626 9.01794 66.2679 8.66594C65.3879 8.29927 64.3613 8.11594 63.1879 8.11594C62.0293 8.11594 60.9953 8.29927 60.0859 8.66594C59.1766 9.01794 58.4653 9.55327 57.9519 10.2719C57.4386 10.9906 57.1819 11.8999 57.1819 12.9999C57.1819 14.0999 57.4386 15.0093 57.9519 15.7279C58.4653 16.4466 59.1766 16.9819 60.0859 17.3339C60.9953 17.6859 62.0293 17.8619 63.1879 17.8619Z" fill="white"/>
<path d="M77.9682 5.87194V17.6639H87.4282V20.1059H75.0422V5.87194H77.9682Z" fill="white"/>
<path d="M97.9497 20.3919C96.0577 20.3919 94.437 20.0986 93.0877 19.5119C91.753 18.9106 90.7263 18.0599 90.0077 16.9599C89.3037 15.8599 88.9517 14.5399 88.9517 12.9999C88.9517 11.4453 89.3037 10.1179 90.0077 9.01794C90.7263 7.91794 91.753 7.0746 93.0877 6.48794C94.437 5.8866 96.0577 5.58594 97.9497 5.58594C99.8563 5.58594 101.477 5.8866 102.812 6.48794C104.146 7.0746 105.166 7.91794 105.87 9.01794C106.588 10.1179 106.948 11.4453 106.948 12.9999C106.948 14.5399 106.588 15.8599 105.87 16.9599C105.166 18.0599 104.146 18.9106 102.812 19.5119C101.477 20.0986 99.8563 20.3919 97.9497 20.3919ZM97.9497 17.8619C99.123 17.8619 100.15 17.6859 101.03 17.3339C101.924 16.9819 102.621 16.4466 103.12 15.7279C103.633 15.0093 103.89 14.0999 103.89 12.9999C103.89 11.8999 103.633 10.9906 103.12 10.2719C102.621 9.55327 101.924 9.01794 101.03 8.66594C100.15 8.29927 99.123 8.11594 97.9497 8.11594C96.791 8.11594 95.757 8.29927 94.8477 8.66594C93.9383 9.01794 93.227 9.55327 92.7137 10.2719C92.2003 10.9906 91.9437 11.8999 91.9437 12.9999C91.9437 14.0999 92.2003 15.0093 92.7137 15.7279C93.227 16.4466 93.9383 16.9819 94.8477 17.3339C95.757 17.6859 96.791 17.8619 97.9497 17.8619Z" fill="white"/>
<path d="M108.858 15.3099H111.828C111.887 15.8086 112.114 16.2633 112.51 16.6739C112.921 17.0699 113.456 17.3853 114.116 17.6199C114.776 17.8399 115.517 17.9499 116.338 17.9499C117.086 17.9499 117.702 17.8693 118.186 17.7079C118.67 17.5466 119.029 17.3193 119.264 17.0259C119.499 16.7326 119.616 16.3806 119.616 15.9699C119.616 15.5739 119.469 15.2733 119.176 15.0679C118.883 14.8479 118.421 14.6719 117.79 14.5399C117.159 14.3933 116.331 14.2466 115.304 14.0999C114.497 13.9826 113.735 13.8213 113.016 13.6159C112.297 13.3959 111.659 13.1173 111.102 12.7799C110.559 12.4426 110.127 12.0319 109.804 11.5479C109.496 11.0493 109.342 10.4626 109.342 9.78794C109.342 8.95194 109.577 8.2186 110.046 7.58794C110.53 6.95727 111.241 6.46594 112.18 6.11394C113.119 5.76194 114.27 5.58594 115.634 5.58594C117.687 5.58594 119.264 6.02594 120.364 6.90594C121.479 7.77127 122.021 8.9666 121.992 10.4919H119.132C119.073 9.6266 118.707 9.00327 118.032 8.62194C117.372 8.2406 116.536 8.04994 115.524 8.04994C114.585 8.04994 113.808 8.18927 113.192 8.46794C112.591 8.7466 112.29 9.22327 112.29 9.89794C112.29 10.1619 112.363 10.3966 112.51 10.6019C112.657 10.7926 112.906 10.9613 113.258 11.1079C113.61 11.2546 114.087 11.3939 114.688 11.5259C115.289 11.6579 116.037 11.7899 116.932 11.9219C117.768 12.0393 118.523 12.2006 119.198 12.4059C119.887 12.5966 120.474 12.8533 120.958 13.1759C121.457 13.4839 121.838 13.8799 122.102 14.3639C122.366 14.8479 122.498 15.4419 122.498 16.1459C122.498 17.0113 122.271 17.7666 121.816 18.4119C121.376 19.0426 120.687 19.5339 119.748 19.8859C118.824 20.2379 117.621 20.4139 116.14 20.4139C115.084 20.4139 114.153 20.3039 113.346 20.0839C112.539 19.8493 111.843 19.5413 111.256 19.1599C110.669 18.7786 110.193 18.3606 109.826 17.9059C109.459 17.4513 109.195 16.9966 109.034 16.5419C108.887 16.0873 108.829 15.6766 108.858 15.3099Z" fill="white"/>
<path d="M127.108 17.0039V14.5619H136.524V17.0039H127.108ZM123.566 20.1059L130.254 5.87194H133.422L140.176 20.1059H136.986L131.134 7.27994H132.542L126.734 20.1059H123.566Z" fill="white"/>
<path d="M145.171 5.87194V17.6639H154.631V20.1059H142.245V5.87194H145.171Z" fill="white"/>
</g>
<defs>
<clipPath id="clip0_121_22">
<rect width="154.631" height="26" fill="white"/>
</clipPath>
</defs>
</svg>
