<svg width="106" height="106" viewBox="0 0 106 106" fill="none" xmlns="http://www.w3.org/2000/svg">
<path d="M49.246 48.8436C46.8157 48.8436 44.8456 50.8127 44.8456 53.2418C44.8456 55.6708 46.8157 57.6399 49.246 57.6399V61.4835C44.6919 61.4835 41 57.7935 41 53.2418C41 48.69 44.6919 45 49.246 45V48.8436Z" fill="white"/>
<path d="M57.479 45C62.0331 45 65.725 48.69 65.725 53.2418C65.725 57.7935 62.0331 61.4835 57.479 61.4835C52.9248 61.4835 49.2329 57.7935 49.2329 53.2418C49.2329 48.69 52.9248 45 57.479 45ZM57.479 48.8436C55.0487 48.8436 53.0785 50.8127 53.0785 53.2418C53.0785 55.6708 55.0487 57.6399 57.479 57.6399C59.9093 57.6399 61.8795 55.6708 61.8795 53.2418C61.8795 50.8127 59.9093 48.8436 57.479 48.8436Z" fill="white"/>
</svg>
